<svg width="92" height="412" viewBox="0 0 92 412" fill="none" xmlns="http://www.w3.org/2000/svg">
<path d="M9.5 7.5V16.5L16.5 12L9.5 7.5Z" fill="#707070"/>
<path d="M20 4H4C2.9 4 2 4.9 2 6V18C2 19.1 2.9 20 4 20H20C21.1 20 22 19.1 22 18V6C22 4.9 21.1 4 20 4ZM20 18.01H4V5.99H20V18.01Z" fill="#707070"/>
<path d="M9.4 156.6L4.8 152L9.4 147.4L8 146L2 152L8 158L9.4 156.6ZM14.6 156.6L19.2 152L14.6 147.4L16 146L22 152L16 158L14.6 156.6V156.6Z" fill="#707070"/>
<g clip-path="url(#clip0_2380_1054)">
<path d="M21 94H3C1.897 94 1 94.898 1 96V112C1 113.104 1.897 114 3 114H21C22.103 114 23 113.104 23 112V96C23 94.898 22.103 94 21 94ZM21 98H13V96H21V98ZM8 98V96H11V98H8ZM6 96V98H3V96H6ZM3 112V100H20.999L20.997 112H3Z" fill="#707070"/>
<path d="M13 107H18V109H13V107ZM6.29297 103.708L8.58597 106L6.29297 108.294L7.70697 109.708L11.414 106L7.70697 102.294L6.29297 103.708Z" fill="#707070"/>
</g>
<path d="M3 55H12L7.49971 47L3 55ZM5.7095 53.4025L7.49971 50.2199L9.29011 53.4025H5.7095Z" fill="#707070"/>
<path d="M17 47C14.7943 47 13 48.7945 13 51C13 53.2057 14.7943 55 17 55C19.2057 55 21 53.2057 21 51C21 48.7945 19.2057 47 17 47V47ZM17 53.4C15.6764 53.4 14.6 52.3236 14.6 51C14.6 49.6766 15.6764 48.6 17 48.6C18.3236 48.6 19.4 49.6766 19.4 51C19.4 52.3236 18.3236 53.4 17 53.4Z" fill="#707070"/>
<path d="M3 65H11V57H3V65ZM4.6 58.6H9.4V63.4H4.6V58.6Z" fill="#707070"/>
<path d="M14.1513 65L17 62.1512L19.8487 65L21 63.8487L18.1513 60.9999L21 58.1511L19.8487 57L17 59.8488L14.1513 57L13 58.1511L15.8487 60.9999L13 63.8487L14.1513 65Z" fill="#707070"/>
<path d="M15 392V399H5.17L4 400.17V392H15ZM16 390H3C2.45 390 2 390.45 2 391V405L6 401H16C16.55 401 17 400.55 17 400V391C17 390.45 16.55 390 16 390ZM21 394H19V403H6V405C6 405.55 6.45 406 7 406H18L22 410V395C22 394.45 21.55 394 21 394Z" fill="#707070"/>
<path d="M16 255V247H8V253H2V265H22V255H16ZM10 249H14V263H10V249ZM4 255H8V263H4V255ZM20 263H16V257H20V263Z" fill="#707070"/>
<path d="M20 298H17.82C17.93 297.69 18 297.35 18 297C18 295.34 16.66 294 15 294C13.95 294 13.04 294.54 12.5 295.35L12 296.02L11.5 295.34C10.96 294.54 10.05 294 9 294C7.34 294 6 295.34 6 297C6 297.35 6.07 297.69 6.18 298H4C2.89 298 2.01 298.89 2.01 300L2 311C2 312.11 2.89 313 4 313H20C21.11 313 22 312.11 22 311V300C22 298.89 21.11 298 20 298ZM15 296C15.55 296 16 296.45 16 297C16 297.55 15.55 298 15 298C14.45 298 14 297.55 14 297C14 296.45 14.45 296 15 296ZM9 296C9.55 296 10 296.45 10 297C10 297.55 9.55 298 9 298C8.45 298 8 297.55 8 297C8 296.45 8.45 296 9 296ZM20 311H4V309H20V311ZM20 306H4V300H9.08L7 302.83L8.62 304L11 300.76L12 299.4L13 300.76L15.38 304L17 302.83L14.92 300H20V306Z" fill="#707070"/>
<path d="M18 351C18 351.67 18 352.33 18 353C19.2 353 20.76 353 22 353C22 352.33 22 351.67 22 351C20.76 351 19.2 351 18 351Z" fill="#707070"/>
<path d="M16 357.61C16.96 358.32 18.21 359.26 19.2 360C19.6 359.47 20 358.93 20.4 358.4C19.41 357.66 18.16 356.72 17.2 356C16.8 356.54 16.4 357.08 16 357.61Z" fill="#707070"/>
<path d="M20.4 345.6C20 345.07 19.6 344.53 19.2 344C18.21 344.74 16.96 345.68 16 346.4C16.4 346.93 16.8 347.47 17.2 348C18.16 347.28 19.41 346.35 20.4 345.6Z" fill="#707070"/>
<path d="M4 349C2.9 349 2 349.9 2 351V353C2 354.1 2.9 355 4 355H5V359H7V355H8L13 358V346L8 349H4ZM9.03 350.71L11 349.53V354.47L9.03 353.29L8.55 353H8H4V351H8H8.55L9.03 350.71Z" fill="#707070"/>
<path d="M15.5 352C15.5 350.67 14.92 349.47 14 348.65V355.34C14.92 354.53 15.5 353.33 15.5 352Z" fill="#707070"/>
<path d="M21 203V201H17.93C17.88 200.61 17.81 200.23 17.71 199.86L20.29 198.37L19.29 196.64L16.92 198C16.64 197.52 16.3 197.09 15.93 196.71C16.03 196.15 16.13 195.02 15.35 193.82L17 192.17L15.59 190.76L13.87 192.48C12.19 191.59 10.77 192.15 10.14 192.48L8.41 190.76L7 192.17L8.65 193.82C7.87 195.02 7.97 196.16 8.07 196.71C7.7 197.1 7.36 197.53 7.08 198L4.71 196.63L3.71 198.36L6.29 199.85C6.19 200.22 6.12 200.6 6.07 200.99H3V202.99H6.07C6.12 203.38 6.19 203.76 6.29 204.13L3.71 205.62L4.71 207.35L7.08 206C8.16 207.81 9.96 209 12 209C14.04 209 15.84 207.81 16.92 206L19.29 207.37L20.29 205.64L17.71 204.15C17.81 203.78 17.88 203.4 17.93 203.01H21V203ZM12 194C12.88 194 13.62 194.57 13.88 195.36C13.29 195.13 12.66 195 12 195C11.34 195 10.71 195.13 10.12 195.36C10.38 194.57 11.12 194 12 194ZM12 207C9.79 207 8 204.76 8 202C8 199.24 9.79 197 12 197C14.21 197 16 199.24 16 202C16 204.76 14.21 207 12 207Z" fill="#707070"/>
<path d="M13 199H11V205H13V199Z" fill="#707070"/>
<path d="M77.5 7.5V16.5L84.5 12L77.5 7.5Z" fill="#099F4E"/>
<path d="M88 4H72C70.9 4 70 4.9 70 6V18C70 19.1 70.9 20 72 20H88C89.1 20 90 19.1 90 18V6C90 4.9 89.1 4 88 4ZM88 18.01H72V5.99H88V18.01Z" fill="#099F4E"/>
<path d="M77.4 156.6L72.8 152L77.4 147.4L76 146L70 152L76 158L77.4 156.6ZM82.6 156.6L87.2 152L82.6 147.4L84 146L90 152L84 158L82.6 156.6V156.6Z" fill="#099F4E"/>
<g clip-path="url(#clip1_2380_1054)">
<path d="M89 94H71C69.897 94 69 94.898 69 96V112C69 113.104 69.897 114 71 114H89C90.103 114 91 113.104 91 112V96C91 94.898 90.103 94 89 94ZM89 98H81V96H89V98ZM76 98V96H79V98H76ZM74 96V98H71V96H74ZM71 112V100H88.999L88.997 112H71Z" fill="#099F4E"/>
<path d="M81 107H86V109H81V107ZM74.293 103.708L76.586 106L74.293 108.294L75.707 109.708L79.414 106L75.707 102.294L74.293 103.708Z" fill="#099F4E"/>
</g>
<path d="M71 55H80L75.4997 47L71 55ZM73.7095 53.4025L75.4997 50.2199L77.2901 53.4025H73.7095Z" fill="#099F4E"/>
<path d="M85 47C82.7943 47 81 48.7945 81 51C81 53.2057 82.7943 55 85 55C87.2057 55 89 53.2057 89 51C89 48.7945 87.2057 47 85 47V47ZM85 53.4C83.6764 53.4 82.6 52.3236 82.6 51C82.6 49.6766 83.6764 48.6 85 48.6C86.3236 48.6 87.4 49.6766 87.4 51C87.4 52.3236 86.3236 53.4 85 53.4Z" fill="#099F4E"/>
<path d="M71 65H79V57H71V65ZM72.6 58.6H77.4V63.4H72.6V58.6Z" fill="#099F4E"/>
<path d="M82.1513 65L85 62.1512L87.8487 65L89 63.8487L86.1513 60.9999L89 58.1511L87.8487 57L85 59.8488L82.1513 57L81 58.1511L83.8487 60.9999L81 63.8487L82.1513 65Z" fill="#099F4E"/>
<path d="M83 392V399H73.17L72 400.17V392H83ZM84 390H71C70.45 390 70 390.45 70 391V405L74 401H84C84.55 401 85 400.55 85 400V391C85 390.45 84.55 390 84 390ZM89 394H87V403H74V405C74 405.55 74.45 406 75 406H86L90 410V395C90 394.45 89.55 394 89 394Z" fill="#099F4E"/>
<path d="M84 255V247H76V253H70V265H90V255H84ZM78 249H82V263H78V249ZM72 255H76V263H72V255ZM88 263H84V257H88V263Z" fill="#099F4E"/>
<path d="M88 298H85.82C85.93 297.69 86 297.35 86 297C86 295.34 84.66 294 83 294C81.95 294 81.04 294.54 80.5 295.35L80 296.02L79.5 295.34C78.96 294.54 78.05 294 77 294C75.34 294 74 295.34 74 297C74 297.35 74.07 297.69 74.18 298H72C70.89 298 70.01 298.89 70.01 300L70 311C70 312.11 70.89 313 72 313H88C89.11 313 90 312.11 90 311V300C90 298.89 89.11 298 88 298ZM83 296C83.55 296 84 296.45 84 297C84 297.55 83.55 298 83 298C82.45 298 82 297.55 82 297C82 296.45 82.45 296 83 296ZM77 296C77.55 296 78 296.45 78 297C78 297.55 77.55 298 77 298C76.45 298 76 297.55 76 297C76 296.45 76.45 296 77 296ZM88 311H72V309H88V311ZM88 306H72V300H77.08L75 302.83L76.62 304L79 300.76L80 299.4L81 300.76L83.38 304L85 302.83L82.92 300H88V306Z" fill="#099F4E"/>
<path d="M86 351C86 351.67 86 352.33 86 353C87.2 353 88.76 353 90 353C90 352.33 90 351.67 90 351C88.76 351 87.2 351 86 351Z" fill="#099F4E"/>
<path d="M84 357.61C84.96 358.32 86.21 359.26 87.2 360C87.6 359.47 88 358.93 88.4 358.4C87.41 357.66 86.16 356.72 85.2 356C84.8 356.54 84.4 357.08 84 357.61Z" fill="#099F4E"/>
<path d="M88.4 345.6C88 345.07 87.6 344.53 87.2 344C86.21 344.74 84.96 345.68 84 346.4C84.4 346.93 84.8 347.47 85.2 348C86.16 347.28 87.41 346.35 88.4 345.6Z" fill="#099F4E"/>
<path d="M72 349C70.9 349 70 349.9 70 351V353C70 354.1 70.9 355 72 355H73V359H75V355H76L81 358V346L76 349H72ZM77.03 350.71L79 349.53V354.47L77.03 353.29L76.55 353H76H72V351H76H76.55L77.03 350.71Z" fill="#099F4E"/>
<path d="M83.5 352C83.5 350.67 82.92 349.47 82 348.65V355.34C82.92 354.53 83.5 353.33 83.5 352Z" fill="#099F4E"/>
<path d="M89 203V201H85.93C85.88 200.61 85.81 200.23 85.71 199.86L88.29 198.37L87.29 196.64L84.92 198C84.64 197.52 84.3 197.09 83.93 196.71C84.03 196.15 84.13 195.02 83.35 193.82L85 192.17L83.59 190.76L81.87 192.48C80.19 191.59 78.77 192.15 78.14 192.48L76.41 190.76L75 192.17L76.65 193.82C75.87 195.02 75.97 196.16 76.07 196.71C75.7 197.1 75.36 197.53 75.08 198L72.71 196.63L71.71 198.36L74.29 199.85C74.19 200.22 74.12 200.6 74.07 200.99H71V202.99H74.07C74.12 203.38 74.19 203.76 74.29 204.13L71.71 205.62L72.71 207.35L75.08 206C76.16 207.81 77.96 209 80 209C82.04 209 83.84 207.81 84.92 206L87.29 207.37L88.29 205.64L85.71 204.15C85.81 203.78 85.88 203.4 85.93 203.01H89V203ZM80 194C80.88 194 81.62 194.57 81.88 195.36C81.29 195.13 80.66 195 80 195C79.34 195 78.71 195.13 78.12 195.36C78.38 194.57 79.12 194 80 194ZM80 207C77.79 207 76 204.76 76 202C76 199.24 77.79 197 80 197C82.21 197 84 199.24 84 202C84 204.76 82.21 207 80 207Z" fill="#099F4E"/>
<path d="M81 199H79V205H81V199Z" fill="#099F4E"/>
<defs>
<clipPath id="clip0_2380_1054">
<rect width="24" height="24" fill="white" transform="translate(0 92)"/>
</clipPath>
<clipPath id="clip1_2380_1054">
<rect width="24" height="24" fill="white" transform="translate(68 92)"/>
</clipPath>
</defs>
</svg>
